<?xml version="1.0" standalone="no"?>
<!DOCTYPE svg PUBLIC "-//W3C//DTD SVG 20010904//EN"
 "http://www.w3.org/TR/2001/REC-SVG-20010904/DTD/svg10.dtd">
<svg version="1.0" xmlns="http://www.w3.org/2000/svg"
 width="300.000000pt" height="190.000000pt" viewBox="0 0 300.000000 190.000000"
 preserveAspectRatio="xMidYMid meet">
<metadata>
Created by potrace 1.10, written by Peter Selinger 2001-2011
</metadata>
<g transform="translate(0.000000,190.000000) scale(0.100000,-0.100000)"
fill="#000000" stroke="none">
<path d="M1390 1707 c-58 -16 -64 -43 -21 -97 17 -22 31 -49 31 -62 0 -22 2
-23 101 -23 92 0 100 1 95 18 -3 11 9 37 30 64 41 53 42 67 9 89 -33 21 -183
28 -245 11z m154 -33 c26 -4 50 -13 53 -21 3 -7 -7 -29 -21 -48 -25 -32 -31
-35 -80 -35 -51 0 -54 2 -81 41 -29 45 -26 55 20 62 52 7 61 7 109 1z"/>
<path d="M1410 1464 c-329 -36 -606 -181 -795 -417 -141 -175 -216 -345 -259
-584 l-5 -33 1144 0 c1125 0 1145 0 1145 19 0 36 -30 162 -56 240 -132 384
-472 680 -868 756 -77 15 -249 25 -306 19z m378 -78 c378 -105 669 -395 778
-774 14 -50 24 -101 22 -114 l-3 -23 -1084 -3 c-630 -1 -1089 2 -1094 7 -13
13 29 171 72 271 144 336 446 580 807 655 49 10 118 13 239 11 145 -3 184 -8
263 -30z"/>
<path d="M924 1199 c-129 -84 -310 -284 -330 -366 -10 -38 47 -90 85 -78 11 3
46 43 79 88 69 95 151 176 239 235 80 54 95 75 81 113 -10 29 -42 59 -64 59
-6 0 -47 -23 -90 -51z m121 -9 l15 -29 -39 -20 c-105 -54 -282 -230 -329 -328
-15 -31 -16 -32 -44 -17 -27 14 -28 16 -14 42 50 96 200 253 316 331 41 28 76
51 77 51 1 0 9 -13 18 -30z"/>
<path d="M207 363 c-4 -3 -7 -17 -7 -30 l0 -23 1298 2 1297 3 0 25 0 25 -1291
3 c-710 1 -1294 -1 -1297 -5z"/>
<path d="M581 219 l35 -29 884 0 884 0 30 30 31 30 -950 -1 -950 0 36 -30z"/>
</g>
</svg>
